<?xml version="1.0" standalone="no"?>
<!DOCTYPE svg PUBLIC "-//W3C//DTD SVG 20010904//EN"
 "http://www.w3.org/TR/2001/REC-SVG-20010904/DTD/svg10.dtd">
<svg version="1.0" xmlns="http://www.w3.org/2000/svg"
 width="213.000000pt" height="213.000000pt" viewBox="0 0 213.000000 213.000000"
 preserveAspectRatio="xMidYMid meet">

<g transform="translate(0.000000,213.000000) scale(0.100000,-0.100000)"
fill="#000000" stroke="none">
<path d="M580 1055 l0 -435 430 0 430 0 0 85 0 85 -30 0 c-29 0 -30 -1 -30
-50 l0 -50 -370 0 -370 0 0 365 0 365 370 0 370 0 0 -50 c0 -49 1 -50 30 -50
l30 0 0 85 0 85 -430 0 -430 0 0 -435z"/>
<path d="M989 1160 l-108 -115 -1 113 0 112 -40 0 -40 0 0 -220 0 -220 40 0
40 0 0 53 c1 46 5 57 38 96 l38 43 77 -96 78 -96 64 0 64 0 3 138 3 137 63
-102 c84 -135 89 -135 168 -8 32 52 62 95 66 95 5 0 8 -58 8 -130 l0 -130 35
0 35 0 -2 222 c-3 199 -5 221 -20 224 -26 3 -40 -12 -122 -148 -43 -71 -79
-128 -81 -128 -2 0 -41 60 -86 134 l-84 134 -64 4 -63 3 -109 -115z m176 -268
c-3 -3 -11 2 -18 10 -6 9 -40 53 -75 97 l-62 80 77 86 78 87 3 -177 c1 -98 0
-180 -3 -183z"/>
</g>
</svg>
